<?xml version="1.0" standalone="no"?><!DOCTYPE svg PUBLIC "-//W3C//DTD SVG 1.1//EN" "http://www.w3.org/Graphics/SVG/1.1/DTD/svg11.dtd"><svg height="1200" legacy-metrics="false" node-id="1" sillyvg="true" template-height="1200" template-width="1200" version="1.1" viewBox="0 0 1200 1200" width="1200" xmlns="http://www.w3.org/2000/svg" xmlns:xlink="http://www.w3.org/1999/xlink"><defs node-id="74"><clipPath id="SVGID_2_" node-id="8"><path d="M 0.00 0.00 L 1200.00 0.00 L 1200.00 1200.00 L 0.00 1200.00 Z" fill="#000000" fill-rule="nonzero" node-id="77" stroke="none" target-height="1200" target-width="1200" target-x="0" target-y="0"></path></clipPath><clipPath id="SVGID_4_" node-id="20"><path d="M 769.43 915.76 L 1031.98 851.52 C 1040.90 849.34 1047.19 841.36 1047.23 832.18 L 1049.12 371.64 C 1049.14 365.88 1045.07 360.91 1039.41 359.81 L 495.65 254.10 C 487.53 252.52 479.12 253.50 471.58 256.90 L 148.39 398.54 C 144.01 400.46 141.19 404.80 141.21 409.58 L 143.10 849.44 C 143.14 859.40 150.50 867.80 160.36 869.17 L 369.59 898.06 L 731.26 924.06 L 769.43 915.76 Z" fill="#000000" fill-rule="nonzero" node-id="81" stroke="none" target-height="670.69244" target-width="907.91" target-x="141.21" target-y="253.36755"></path></clipPath><clipPath id="SVGID_6_" node-id="30"><path d="M 228.91 549.26 L 228.91 666.36 C 228.91 672.48 231.71 678.26 236.51 682.05 L 286.61 721.65 C 292.20 726.07 299.73 727.18 306.36 724.56 L 399.06 687.96 L 399.06 431.93 L 286.69 476.29 C 283.56 477.53 280.79 479.53 278.65 482.12 L 233.53 536.49 C 230.54 540.08 228.91 544.59 228.91 549.26 Z" fill="#000000" fill-rule="nonzero" node-id="85" stroke="none" target-height="294.02435" target-width="170.15" target-x="228.91" target-y="431.93"></path></clipPath><clipPath id="SVGID_8_" node-id="68"><path d="M 739.17 1160.86 L 743.67 1209.87 L 273.17 1209.87 C 273.17 1209.87 259.02 825.79 530.17 825.79 C 642.46 825.79 722.06 868.29 773.89 927.25 C 858.68 1023.71 872.17 1160.85 872.17 1160.85 L 723.17 1160.85 L 739.17 1160.86 Z" fill="#000000" fill-rule="nonzero" node-id="89" stroke="none" target-height="384.08002" target-width="599.11487" target-x="273.0551" target-y="825.79"></path></clipPath></defs><path d="M 0.00 0.00 L 1200.00 0.00 L 1200.00 1200.00 L 0.00 1200.00 Z" fill="#d2f0fa" fill-opacity="0" fill-rule="nonzero" node-id="93" stroke="none" target-height="1200" target-width="1200" target-x="0" target-y="0"></path><g node-id="234"><g node-id="235"><g clip-path="url(#SVGID_2_)" group-id="1,2" id="head_11_" node-id="10"><path d="M 150.45 384.36 L 260.04 262.27 C 262.57 259.46 266.46 258.31 270.11 259.30 L 367.87 285.88 L 150.45 384.36 Z" fill="#ffffff" fill-rule="nonzero" group-id="1,2" node-id="98" stroke="none" target-height="125.37793" target-width="217.42" target-x="150.45" target-y="258.98206"></path><path d="M 150.45 389.86 C 149.14 389.86 147.83 389.40 146.78 388.45 C 144.52 386.42 144.33 382.94 146.36 380.68 L 255.95 258.60 C 259.89 254.21 265.87 252.45 271.56 254.00 L 369.31 280.58 C 372.24 281.38 373.97 284.40 373.17 287.33 C 372.37 290.26 369.36 291.99 366.42 291.19 L 268.66 264.61 C 267.00 264.16 265.27 264.67 264.12 265.94 L 154.55 388.04 C 153.46 389.25 151.96 389.86 150.45 389.86 Z" fill="#2e8ae6" fill-rule="nonzero" group-id="1,2" node-id="100" stroke="none" target-height="136.36148" target-width="228.39795" target-x="144.96124" target-y="253.4985"></path><path d="M 1038.34 346.87 L 891.61 260.56 C 885.36 256.67 878.46 253.96 871.23 252.57 L 386.55 159.27 C 384.47 158.87 383.28 161.55 384.96 162.83 C 384.96 162.83 450.43 215.93 472.21 233.93 L 1038.34 346.87 Z" fill="#ffffff" fill-rule="nonzero" group-id="1,2" node-id="102" stroke="none" target-height="187.59999" target-width="654.17664" target-x="384.16333" target-y="159.27"></path><path d="M 1038.34 352.37 C 1037.39 352.37 1036.43 352.12 1035.56 351.61 L 888.72 265.23 C 883.02 261.68 876.80 259.24 870.21 257.97 L 399.23 167.31 C 418.78 183.19 459.54 216.31 475.73 229.69 C 478.07 231.63 478.40 235.09 476.47 237.43 C 474.54 239.77 471.07 240.10 468.73 238.17 C 447.46 220.59 383.59 168.78 381.56 167.14 C 378.84 165.01 377.93 161.34 379.34 158.18 C 380.77 154.98 384.17 153.22 387.61 153.88 L 872.29 247.18 C 880.18 248.70 887.65 251.62 894.48 255.86 L 1041.15 342.14 C 1043.77 343.68 1044.64 347.05 1043.10 349.67 C 1042.06 351.40 1040.22 352.37 1038.34 352.37 Z" fill="#2e8ae6" fill-rule="nonzero" group-id="1,2" node-id="104" stroke="none" target-height="198.61758" target-width="665.18176" target-x="378.68234" target-y="153.75241"></path><g clip-path="url(#SVGID_4_)" group-id="1,2,4" node-id="106"><path d="M 759.43 919.76 L 1030.64 852.16 C 1040.41 849.72 1047.28 840.97 1047.32 830.90 L 1049.12 369.82 C 1049.15 364.53 1045.41 359.97 1040.22 358.96 L 495.65 253.10 C 487.53 251.52 479.12 252.50 471.58 255.90 L 148.37 397.55 C 144.00 399.47 141.18 403.79 141.19 408.57 L 142.13 846.90 C 142.16 858.88 151.02 869.01 162.89 870.63 L 371.60 899.07 L 759.43 919.76 Z" fill="#ffffff" fill-rule="nonzero" group-id="1,2,4" node-id="108" stroke="none" target-height="667.39246" target-width="907.93" target-x="141.19" target-y="252.36755"></path><path d="M 759.43 931.76 C 759.22 931.76 759.00 931.75 758.79 931.74 L 370.95 911.05 C 370.62 911.03 370.29 911.00 369.97 910.96 L 161.26 882.52 C 143.55 880.11 130.16 864.81 130.12 846.93 L 129.18 408.60 C 129.16 399.05 134.80 390.40 143.55 386.57 L 466.71 244.94 C 476.55 240.52 487.35 239.27 497.94 241.33 L 1042.51 347.19 C 1053.36 349.30 1061.19 358.85 1061.12 369.91 L 1059.32 830.96 C 1059.26 846.54 1048.66 860.05 1033.54 863.82 L 762.33 931.42 C 761.38 931.64 760.41 931.76 759.43 931.76 Z M 372.72 887.11 L 758.28 907.67 L 1027.74 840.51 C 1032.19 839.40 1035.30 835.43 1035.32 830.85 L 1037.11 370.58 L 493.36 264.88 C 487.65 263.77 481.82 264.45 476.51 266.84 C 476.47 266.86 476.43 266.87 476.39 266.89 L 153.18 408.54 L 154.12 846.87 C 154.13 852.83 158.60 857.93 164.50 858.73 L 372.72 887.11 Z" fill="#2e8ae6" fill-rule="nonzero" group-id="1,2,4" node-id="110" stroke="none" target-height="691.39233" target-width="931.94" target-x="129.18" target-y="240.36765"></path></g><g clip-path="url(#SVGID_4_)" group-id="1,2,5" node-id="113"><path d="M 382.26 901.46 L 158.72 869.98 C 152.56 869.11 151.66 860.58 157.51 858.45 L 467.34 745.79 C 477.30 742.15 488.06 741.25 498.48 743.18 L 1028.68 840.70 C 1034.86 841.84 1035.32 850.52 1029.29 852.30 L 1000.22 860.90 L 735.60 925.85 L 382.26 901.46 Z" fill="#5693b3" fill-opacity="0.3" fill-rule="nonzero" group-id="1,2,5" node-id="115" stroke-linecap="butt" stroke-opacity="0.3" stroke-width="1" target-height="183.6604" target-width="879.95245" target-x="153.61125" target-y="742.1896"></path></g><g clip-path="url(#SVGID_4_)" group-id="1,2,6" node-id="118"><path d="M 484.42 698.86 C 481.93 698.86 479.92 696.85 479.92 694.36 L 479.92 285.25 C 479.92 282.76 481.93 280.75 484.42 280.75 C 486.91 280.75 488.92 282.76 488.92 285.25 L 488.92 694.36 C 488.92 696.84 486.90 698.86 484.42 698.86 Z" fill="#c0d9f0" fill-rule="nonzero" group-id="1,2,6" node-id="120" stroke="none" target-height="418.11" target-width="9" target-x="479.92" target-y="280.75"></path></g><g clip-path="url(#SVGID_4_)" group-id="1,2,7" node-id="123"><g clip-path="url(#SVGID_6_)" group-id="1,2,7,17" node-id="125"><path d="M 299.04 735.95 C 292.37 735.95 285.77 733.74 280.40 729.50 L 230.30 689.90 C 223.06 684.18 218.91 675.60 218.91 666.37 L 218.91 549.27 C 218.91 542.29 221.37 535.48 225.83 530.11 L 270.95 475.74 C 274.17 471.87 278.34 468.84 283.02 467.00 L 409.06 417.24 L 409.06 694.78 L 310.03 733.88 C 306.48 735.27 302.75 735.95 299.04 735.95 Z M 389.05 446.63 L 290.36 485.60 C 288.80 486.22 287.41 487.22 286.34 488.52 L 241.22 542.89 C 239.73 544.68 238.91 546.95 238.91 549.28 L 238.91 666.38 C 238.91 669.46 240.29 672.32 242.71 674.22 L 292.81 713.82 C 295.60 716.02 299.38 716.58 302.68 715.28 L 389.05 681.18 L 389.05 446.63 Z" fill="#2e8ae6" fill-rule="nonzero" group-id="1,2,7,17" node-id="127" stroke="none" target-height="318.71002" target-width="190.15" target-x="218.91" target-y="417.24"></path></g><g clip-path="url(#SVGID_6_)" group-id="1,2,7,18" node-id="130"><path d="M 343.55 503.62 L 343.55 637.44 L 411.44 691.05 L 516.42 649.60 L 516.42 389.69 L 397.51 436.64 Z" fill="#bfe0f0" fill-rule="nonzero" group-id="1,2,7,18" node-id="132" stroke="none" target-height="301.36" target-width="172.87" target-x="343.55" target-y="389.69"></path></g><g clip-path="url(#SVGID_6_)" group-id="1,2,7,19" node-id="135"><path d="M 346.00 523.00 C 344.07 523.00 342.23 521.88 341.41 520.00 C 340.31 517.47 341.46 514.52 344.00 513.42 L 383.00 496.42 C 385.53 495.31 388.48 496.48 389.58 499.01 C 390.68 501.54 389.53 504.49 386.99 505.59 L 347.99 522.59 C 347.35 522.87 346.67 523.00 346.00 523.00 Z" fill="#2e8ae6" fill-rule="nonzero" group-id="1,2,7,19" node-id="137" stroke="none" target-height="26.96753" target-width="48.940063" target-x="341.02496" target-y="496.03247"></path></g><g clip-path="url(#SVGID_6_)" group-id="1,2,7,20" node-id="140"><path d="M 346.00 564.11 C 344.10 564.11 342.28 563.02 341.45 561.18 C 340.31 558.67 341.42 555.70 343.93 554.56 L 382.93 536.82 C 385.44 535.68 388.41 536.79 389.55 539.30 C 390.69 541.81 389.58 544.78 387.07 545.92 L 348.07 563.66 C 347.40 563.97 346.70 564.11 346.00 564.11 Z" fill="#2e8ae6" fill-rule="nonzero" group-id="1,2,7,20" node-id="142" stroke="none" target-height="27.714722" target-width="48.949524" target-x="341.02524" target-y="536.39526"></path></g><g clip-path="url(#SVGID_6_)" group-id="1,2,7,21" node-id="145"><path d="M 346.00 605.22 C 344.12 605.22 342.32 604.15 341.47 602.34 C 340.30 599.84 341.38 596.86 343.88 595.69 L 382.88 577.47 C 385.38 576.30 388.36 577.38 389.53 579.88 C 390.70 582.38 389.62 585.36 387.12 586.53 L 348.12 604.75 C 347.43 605.07 346.71 605.22 346.00 605.22 Z" fill="#2e8ae6" fill-rule="nonzero" group-id="1,2,7,21" node-id="147" stroke="none" target-height="28.20398" target-width="48.967957" target-x="341.01605" target-y="577.016"></path></g><g clip-path="url(#SVGID_6_)" group-id="1,2,7,22" node-id="150"><path d="M 366.00 637.33 C 364.12 637.33 362.31 636.26 361.47 634.44 C 360.30 631.94 361.38 628.96 363.89 627.79 L 383.18 618.79 C 385.68 617.63 388.66 618.70 389.83 621.21 C 391.00 623.71 389.92 626.69 387.41 627.86 L 368.12 636.86 C 367.43 637.18 366.71 637.33 366.00 637.33 Z" fill="#2e8ae6" fill-rule="nonzero" group-id="1,2,7,22" node-id="152" stroke="none" target-height="18.989014" target-width="29.26712" target-x="361.01642" target-y="618.341"></path></g><g clip-path="url(#SVGID_6_)" group-id="1,2,7,23" node-id="155"><path d="M 412.26 699.07 L 348.05 648.36 C 342.01 643.59 338.54 636.44 338.54 628.74 L 338.54 511.68 C 338.54 505.99 340.50 500.42 344.07 496.00 L 396.74 430.62 L 404.53 436.89 L 351.86 502.27 C 349.72 504.93 348.54 508.27 348.54 511.68 L 348.54 628.75 C 348.54 633.37 350.62 637.66 354.24 640.52 L 418.45 691.23 L 412.26 699.07 Z" fill="#2e8ae6" fill-rule="nonzero" group-id="1,2,7,23" node-id="157" stroke="none" target-height="268.45" target-width="79.91" target-x="338.54" target-y="430.62"></path></g></g><g clip-path="url(#SVGID_4_)" group-id="1,2,8" node-id="161"><path d="M 280.49 382.58 L 280.49 421.70 C 280.49 423.13 281.93 424.11 283.27 423.59 L 312.58 412.01 C 313.35 411.70 313.86 410.96 313.86 410.12 L 313.86 370.11 C 313.86 368.65 312.37 367.67 311.03 368.24 L 281.72 380.72 C 280.97 381.04 280.49 381.77 280.49 382.58 Z" fill="#5693b3" fill-opacity="0.3" fill-rule="evenodd" group-id="1,2,8" node-id="163" stroke-linecap="butt" stroke-opacity="0.3" stroke-width="1" target-height="55.626343" target-width="33.369995" target-x="280.49" target-y="368.08746"></path><path d="M 231.25 444.15 L 260.58 432.56 C 261.35 432.26 261.86 431.51 261.86 430.68 L 261.86 392.23 C 261.86 390.78 260.38 389.81 259.05 390.37 L 229.72 402.86 C 228.98 403.18 228.49 403.91 228.49 404.72 L 228.49 442.28 C 228.49 443.70 229.92 444.68 231.25 444.15 Z" fill="#5693b3" fill-opacity="0.3" fill-rule="evenodd" group-id="1,2,8" node-id="165" stroke-linecap="butt" stroke-opacity="0.3" stroke-width="1" target-height="54.058167" target-width="33.36998" target-x="228.49" target-y="390.22156"></path><path d="M 180.23 464.31 L 209.58 452.71 C 210.35 452.41 210.85 451.67 210.85 450.84 L 210.85 413.92 C 210.85 412.48 209.38 411.51 208.05 412.07 L 178.70 424.56 C 177.96 424.88 177.48 425.60 177.48 426.41 L 177.48 462.43 C 177.48 463.86 178.91 464.84 180.23 464.31 Z" fill="#5693b3" fill-opacity="0.3" fill-rule="evenodd" group-id="1,2,8" node-id="167" stroke-linecap="butt" stroke-opacity="0.3" stroke-width="1" target-height="52.51831" target-width="33.37001" target-x="177.48" target-y="411.92142"></path></g><g clip-path="url(#SVGID_4_)" group-id="1,2,9" node-id="170"><path d="M 830.66 689.33 C 829.35 689.33 828.03 688.90 826.92 688.02 L 791.64 659.89 C 787.85 657.25 783.01 656.64 778.68 658.28 C 778.62 658.30 778.56 658.32 778.50 658.34 L 736.60 672.70 C 733.46 673.78 730.05 672.10 728.98 668.97 C 727.91 665.84 729.58 662.42 732.71 661.35 L 774.53 647.02 C 782.64 643.99 791.67 645.18 798.72 650.20 C 798.81 650.26 798.89 650.33 798.98 650.39 L 834.40 678.63 C 836.99 680.70 837.42 684.47 835.35 687.06 C 834.17 688.56 832.42 689.33 830.66 689.33 Z" fill="#e84a2c" fill-rule="nonzero" group-id="1,2,9" node-id="172" stroke="none" target-height="43.961243" target-width="107.950806" target-x="728.6717" target-y="645.3688"></path><path d="M 830.66 692.33 C 828.63 692.33 826.64 691.63 825.05 690.37 L 789.85 662.30 C 786.89 660.27 783.11 659.81 779.74 661.09 L 779.51 661.17 L 737.57 675.54 C 732.88 677.15 727.75 674.64 726.14 669.95 C 724.53 665.25 727.04 660.13 731.74 658.52 L 773.56 644.19 C 782.52 640.84 792.61 642.17 800.47 647.77 C 800.59 647.86 800.71 647.95 800.84 648.04 L 836.28 676.30 C 840.16 679.39 840.80 685.07 837.71 688.95 C 835.98 691.10 833.42 692.33 830.66 692.33 Z" fill="#f54431" fill-rule="nonzero" group-id="1,2,9" node-id="174" stroke="none" target-height="49.94525" target-width="113.94043" target-x="725.6682" target-y="642.38477"></path></g><g clip-path="url(#SVGID_4_)" group-id="1,2,10" node-id="177"><path d="M 992.87 494.24 L 799.09 511.24 C 792.59 511.81 786.05 510.78 780.04 508.25 L 544.87 409.00 C 539.60 406.77 533.76 410.65 533.76 416.37 L 533.76 515.19 C 533.76 530.03 541.97 543.64 555.09 550.57 L 644.83 597.92 C 650.69 601.01 657.22 602.60 663.85 602.54 L 776.01 601.55 C 784.73 601.47 793.36 603.30 801.30 606.89 L 880.50 642.77 C 887.72 646.04 895.75 647.09 903.58 645.79 L 984.87 632.26 C 994.52 630.65 1001.59 622.31 1001.59 612.53 L 1001.59 502.21 C 1001.57 497.51 997.55 493.83 992.87 494.24 Z" fill="#1c78d6" fill-rule="nonzero" group-id="1,2,10" node-id="179" stroke="none" target-height="237.94519" target-width="467.83002" target-x="533.76" target-y="408.36682"></path></g><g clip-path="url(#SVGID_4_)" group-id="1,2,11" node-id="182"><path d="M 717.37 561.13 C 715.16 561.13 712.91 560.67 710.77 559.70 L 620.41 518.73 C 612.36 515.08 608.80 505.60 612.45 497.55 C 616.10 489.50 625.58 485.94 633.63 489.59 L 723.99 530.56 C 732.04 534.21 735.60 543.69 731.95 551.74 C 729.28 557.64 723.46 561.13 717.37 561.13 Z" fill="#ffffff" fill-rule="nonzero" group-id="1,2,11" node-id="184" stroke="none" target-height="72.94034" target-width="122.30072" target-x="611.0497" target-y="488.18967"></path></g><g clip-path="url(#SVGID_4_)" group-id="1,2,12" node-id="187"><path d="M 854.70 586.05 C 847.32 586.05 840.88 580.60 839.86 573.07 C 838.74 564.86 844.49 557.30 852.69 556.18 L 926.73 546.08 C 934.94 544.96 942.50 550.71 943.62 558.92 C 944.74 567.13 938.99 574.69 930.79 575.81 L 856.75 585.91 C 856.06 586.00 855.38 586.05 854.70 586.05 Z" fill="#ffffff" fill-rule="nonzero" group-id="1,2,12" node-id="189" stroke="none" target-height="40.087402" target-width="103.994934" target-x="839.7425" target-y="545.9626"></path></g><path d="M 1039.98 517.05 L 1069.91 557.33 C 1072.47 560.78 1073.86 564.96 1073.86 569.26 L 1073.86 690.45 C 1073.86 694.48 1072.64 698.42 1070.36 701.75 L 1039.04 747.50" fill="#5693b3" fill-opacity="0.3" fill-rule="nonzero" group-id="1,2,13" node-id="194" stroke-linecap="butt" stroke-opacity="0.3" stroke-width="1" target-height="230.45001" target-width="34.819946" target-x="1039.04" target-y="517.05"></path><path d="M 1046.08 746.06 L 1037.83 740.41 L 1066.24 698.92 C 1067.96 696.41 1068.86 693.48 1068.86 690.45 L 1068.86 569.25 C 1068.86 566.05 1067.81 562.87 1065.90 560.30 L 1038.27 523.12 L 1046.30 517.16 L 1073.93 554.34 C 1077.11 558.62 1078.86 563.92 1078.86 569.25 L 1078.86 690.44 C 1078.86 695.50 1077.35 700.39 1074.49 704.56 L 1046.08 746.06 Z" fill="#2e8ae6" fill-rule="nonzero" group-id="1,2" node-id="197" stroke="none" target-height="228.90002" target-width="41.03003" target-x="1037.83" target-y="517.16"></path><path d="M 578.30 190.31 L 688.22 281.79 C 690.46 283.69 691.75 286.48 691.75 289.42 L 693.75 437.27 C 693.75 440.46 697.30 442.36 699.96 440.61 L 739.28 414.61 C 740.94 413.51 743.15 413.80 744.47 415.28 L 781.71 456.96 C 783.10 458.51 785.44 458.74 787.11 457.49 L 822.57 430.68 C 824.09 429.53 826.20 429.61 827.62 430.87 L 876.13 473.53 C 878.78 475.86 882.92 473.87 882.77 470.35 L 877.37 324.32 C 877.24 321.40 875.85 318.68 873.54 316.88 L 748.44 224.39 C 746.01 222.60 743.22 221.38 740.25 220.82 L 578.30 190.31 Z" fill="#5693b3" fill-opacity="0.3" fill-rule="nonzero" group-id="1,2,14" node-id="201" stroke-linecap="butt" stroke-opacity="0.3" stroke-width="1" target-height="284.2133" target-width="304.47003" target-x="578.3" target-y="190.31"></path><path d="M 727.68 402.16 L 522.85 114.39 C 521.05 111.87 521.46 108.43 523.79 106.39 C 526.12 104.35 529.58 104.41 531.84 106.53 L 749.34 310.59 L 750.85 315.06 L 736.68 400.08 L 727.68 402.16 Z" fill="#fccd11" fill-rule="nonzero" group-id="1,2" node-id="204" stroke="none" target-height="297.26" target-width="229.07874" target-x="521.77124" target-y="104.90001"></path><path d="M 1010.40 195.29 C 1008.28 193.16 1004.98 192.91 1002.57 194.71 L 825.94 325.99 L 831.90 334.02 L 834.74 331.91 L 844.46 407.80 L 841.37 411.90 L 849.36 417.91 L 1010.94 203.13 C 1012.75 200.72 1012.52 197.43 1010.40 195.29 Z" fill="#fccd11" fill-rule="nonzero" group-id="1,2" node-id="206" stroke="none" target-height="224.38376" target-width="186.20374" target-x="825.94" target-y="193.52625"></path><path d="M 740.09 303.76 L 723.70 393.09 C 722.42 400.05 724.92 407.17 730.26 411.80 L 784.70 459.05 C 788.10 462.00 793.06 462.32 796.80 459.82 L 845.89 427.09 C 849.12 424.94 850.81 421.11 850.23 417.27 L 835.27 318.73 C 834.50 313.64 830.56 309.60 825.48 308.71 L 751.64 295.73 C 746.24 294.76 741.08 298.36 740.09 303.76 Z" fill="#f54431" fill-rule="nonzero" group-id="1,2" node-id="208" stroke="none" target-height="165.9028" target-width="126.95538" target-x="723.3748" target-y="295.57596"></path><path d="M 157.38 214.46 L 157.42 215.12 C 157.72 220.29 162.23 224.19 167.40 223.75 L 214.98 219.65 C 218.37 219.37 221.55 217.72 223.73 215.12 C 225.91 212.53 226.98 209.10 226.67 205.73 L 222.70 160.45 C 222.26 155.38 217.78 151.63 212.71 152.09 L 212.71 152.09 C 207.66 152.54 203.93 157.00 204.37 162.06 L 207.62 199.07 C 207.71 200.15 206.91 201.11 205.83 201.20 L 165.76 204.75 C 160.80 205.19 157.09 209.49 157.38 214.46 Z" fill="#f54431" fill-rule="nonzero" group-id="1,2" node-id="210" stroke="none" target-height="71.66" target-width="69.28999" target-x="157.38" target-y="152.09"></path><path d="M 281.11 160.11 C 276.21 158.54 270.96 161.21 269.34 166.09 L 254.12 211.76 C 253.01 215.03 253.23 218.51 254.75 221.58 C 256.27 224.65 258.89 226.95 262.14 228.04 L 304.69 242.40 C 309.65 244.07 315.01 241.38 316.63 236.40 L 316.91 235.53 C 318.50 230.63 315.85 225.36 310.96 223.72 L 275.89 211.96 C 274.86 211.61 274.30 210.50 274.65 209.47 L 287.16 172.04 C 288.82 167.07 286.10 161.71 281.11 160.11 L 281.11 160.11 Z" fill="#f54431" fill-rule="nonzero" group-id="1,2" node-id="212" stroke="none" target-height="83.225525" target-width="63.917282" target-x="253.44875" target-y="159.66698"></path><path d="M 228.92 264.33 L 250.83 297.96 C 253.65 302.30 259.46 303.52 263.79 300.70 L 263.79 300.70 C 268.08 297.91 269.34 292.19 266.61 287.85 L 240.84 246.91 C 239.10 243.99 236.21 241.85 232.91 241.03 C 229.61 240.21 226.06 240.76 223.16 242.54 L 184.88 266.96 C 180.49 269.76 179.23 275.60 182.06 279.96 L 182.21 280.19 C 184.99 284.47 190.67 285.74 195.01 283.05 L 226.23 263.72 C 227.14 263.16 228.33 263.43 228.92 264.33 Z" fill="#f54431" fill-rule="nonzero" group-id="1,2" node-id="214" stroke="none" target-height="61.53784" target-width="87.48775" target-x="180.55779" target-y="240.66956"></path></g></g><g clip-path="url(#SVGID_2_)" group-id="1,3" id="body_8_" node-id="61"><path d="M 738.17 1159.86 L 743.17 1209.87 L 828.17 1209.87 L 822.17 1157.86 Z" fill="#ffffff" fill-rule="nonzero" group-id="1,3" node-id="218" stroke="none" target-height="52.01001" target-width="90" target-x="738.17" target-y="1157.86"></path><path d="M 833.78 1214.87 L 738.64 1214.87 L 732.65 1154.99 L 826.61 1152.75 L 833.78 1214.87 Z M 747.69 1204.87 L 822.55 1204.87 L 817.72 1162.97 L 743.68 1164.73 L 747.69 1204.87 Z" fill="#2e8ae6" fill-rule="nonzero" group-id="1,3" node-id="220" stroke="none" target-height="62.119995" target-width="101.130005" target-x="732.65" target-y="1152.75"></path><g clip-path="url(#SVGID_8_)" group-id="1,3,15" node-id="222"><path d="M 872.17 1160.86 C 872.17 1160.86 858.68 1023.72 773.89 927.26 C 722.06 868.30 642.46 825.80 530.17 825.80 C 400.53 825.80 336.11 913.59 304.18 1005.23 C 304.18 1005.23 293.65 1036.71 285.61 1075.44 C 277.57 1114.17 275.96 1141.23 275.96 1141.23 C 272.15 1181.99 273.18 1209.88 273.18 1209.88 L 743.68 1209.88" fill="#1c78d6" fill-rule="nonzero" group-id="1,3,15" node-id="224" stroke="none" target-height="384.08002" target-width="599.09143" target-x="273.07858" target-y="825.8"></path></g><g clip-path="url(#SVGID_8_)" group-id="1,3,16" node-id="227"><path d="M 343.21 1042.47 C 345.67 1042.31 347.78 1040.66 348.53 1038.30 C 350.77 1031.31 356.50 1014.92 368.46 988.54 C 380.94 961.02 395.62 934.01 402.75 922.92 C 403.87 921.17 406.58 922.08 406.41 924.15 C 405.42 936.54 403.56 964.87 402.78 988.71 C 402.00 1012.50 402.52 1027.62 402.88 1034.29 C 403.00 1036.48 404.86 1038.16 407.05 1038.07 C 414.83 1037.73 434.04 1037.13 463.04 1037.81 C 496.60 1038.60 523.57 1040.88 535.81 1042.07 C 537.83 1042.27 538.31 1045.01 536.46 1045.86 C 523.68 1051.80 493.44 1065.46 459.03 1078.16 C 424.63 1090.86 405.54 1097.23 398.92 1099.38 C 397.17 1099.95 395.79 1101.29 395.15 1103.01 C 392.48 1110.25 384.92 1132.86 373.32 1184.59 C 358.61 1250.15 358.44 1277.50 358.44 1277.50 L 337.89 1416.55 C 337.89 1416.55 331.04 1298.97 331.14 1213.14 C 331.22 1146.58 334.27 1112.99 335.63 1101.26 C 335.96 1098.43 334.26 1095.77 331.56 1094.88 C 325.67 1092.94 313.76 1088.55 293.00 1079.21 C 271.48 1069.52 259.04 1062.87 253.11 1059.49 C 251.52 1058.59 251.89 1056.20 253.67 1055.82 C 262.24 1053.97 280.99 1050.10 301.34 1047.07 C 321.34 1044.11 336.35 1042.91 343.21 1042.47 Z" fill="#fccd11" fill-rule="nonzero" group-id="1,3,16" node-id="229" stroke="none" target-height="494.549" target-width="285.46005" target-x="252.12625" target-y="922.00104"></path></g><path d="M 877.39 1156.81 C 877.10 1154.06 874.64 1152.08 871.90 1152.36 C 871.47 1152.40 828.68 1156.85 785.06 1158.31 C 703.87 1161.05 694.89 1151.16 693.91 1149.15 L 693.68 1148.67 L 693.35 1148.25 C 683.68 1135.86 670.46 1016.34 664.39 943.91 C 664.16 941.16 661.74 939.12 658.99 939.34 C 656.24 939.57 654.19 941.99 654.42 944.74 C 654.46 945.21 658.44 992.59 664.11 1041.58 C 665.03 1049.52 665.92 1056.89 666.78 1063.74 C 635.60 1025.98 626.41 975.99 626.32 975.45 C 625.84 972.73 623.24 970.92 620.53 971.40 C 617.81 971.88 616.00 974.47 616.48 977.19 C 616.93 979.71 627.84 1039.34 667.85 1079.83 C 668.20 1080.18 668.60 1080.45 669.01 1080.68 C 676.47 1135.32 681.66 1149.12 685.15 1153.97 C 688.99 1161.14 701.72 1168.79 758.33 1168.78 C 766.43 1168.78 775.43 1168.62 785.43 1168.29 C 829.40 1166.81 872.49 1162.33 872.93 1162.29 C 875.69 1162.01 877.68 1159.55 877.39 1156.81 Z" fill="#ffffff" fill-rule="nonzero" group-id="1,3" node-id="232" stroke="none" target-height="229.44" target-width="260.95728" target-x="616.43274" target-y="939.34"></path></g></g></svg>